
<svg clip-rule="evenodd" fill-rule="evenodd" stroke-linejoin="round" stroke-miterlimit="2" viewBox="100 135 360 400" xmlns="http://www.w3.org/2000/svg"><g transform="matrix(1.61441 0 0 1.603 -379.601 -1109.34)"><path d="m447.361 824.159h-14.027c.015.387.087.772.212 1.131.124.362.306.701.52.991.216.293.47.536.759.737.293.199.628.356 1.076.478.837.25 2.28.326 3.551.171.598-.071 1.098-.181 1.492-.332.397-.151.688-.343.962-.592s.53-.553.743-.885h4.712zm-14.027-2.563h8.908c-.022-.561-.185-1.176-.596-1.745-.179-.252-.397-.469-.645-.654-.251-.184-.533-.334-.889-.453-.702-.249-1.864-.332-2.934-.239-.545.048-1.037.137-1.442.259-.406.123-.726.273-1.002.452-.277.18-.506.389-.702.635-.414.509-.642 1.135-.698 1.746zm-50.493 1.486c-.004.519.064 1.037.187 1.494.124.457.305.854.541 1.2.232.344.515.639.861.889.342.251.736.455 1.218.608.48.152 1.04.255 1.63.29.592.034 1.216 0 1.766-.095.55-.096 1.026-.249 1.433-.453.408-.202.747-.456 1.035-.748.288-.298.521-.638.702-1.036.364-.778.506-1.892.379-2.92-.061-.507-.189-.963-.368-1.362-.182-.397-.414-.737-.699-1.032-.285-.294-.624-.545-1.028-.747-.829-.431-2.051-.613-3.207-.55-.594.03-1.157.135-1.636.287-.48.152-.88.355-1.224.604-.343.248-.63.545-.862.889-.512.735-.727 1.712-.728 2.682m64.52-2.692v-4.558h5.116v2.943c.287-.459.628-.888.988-1.256.368-.369.761-.677 1.19-.935.434-.257.906-.464 1.591-.645.685-.177 1.589-.331 2.232-.415.637-.085 1.017-.106 1.237-.112.422-.011.391.012.582.019l.015 4.031c-.616-.125-1.248-.196-1.859-.212-.617-.015-1.216.023-1.732.104-.52.081-.953.201-1.329.353-.373.154-.692.34-1.007.588-.6.471-1.157 1.124-1.362 1.674-.102.262-.147.508-.147.756v7.629h-5.516v-3.891c-.359.694-.849 1.322-1.484 1.879-.637.557-1.42 1.045-2.367 1.44-1.876.815-4.68 1.167-7.25.92-1.278-.119-2.442-.372-3.423-.729-.979-.358-1.775-.815-2.433-1.355-.663-.537-1.194-1.152-1.6-1.844v3.58h-5.512v-9.324c0-.451-.078-.913-.355-1.328-.119-.177-.264-.341-.435-.479-.172-.138-.366-.253-.609-.344-.495-.206-1.381-.28-2.219-.254-.437.015-.842.057-1.168.128-.328.068-.581.162-.808.286-.23.124-.436.275-.621.456-.635.628-.888 1.358-.892 2.083v8.776h-5.515v-9.297c0-.462-.149-.979-.501-1.468-.159-.218-.345-.408-.551-.562-.205-.151-.429-.262-.712-.343-.57-.169-1.516-.181-2.389-.049-.443.071-.845.183-1.185.314-.337.134-.611.285-.848.474-.736.603-1.143 1.443-1.143 2.18v8.751h-5.512v-4.247c-.303.667-.715 1.28-1.252 1.83-.536.552-1.195 1.04-2.005 1.457-.806.42-1.763.768-2.902 1.009-1.138.242-2.457.376-3.776.376-1.32 0-2.636-.133-3.773-.372-1.137-.24-2.093-.585-2.901-1.001-.807-.419-1.467-.904-2.006-1.453-.537-.551-.95-1.164-1.252-1.83v4.231h-5.514v-7.651c0-.617-.012-1.241-.066-1.69-.05-.451-.13-.73-.225-.967-.097-.239-.212-.435-.344-.596-.131-.165-.28-.295-.461-.407-.186-.113-.399-.205-.684-.278-.56-.156-1.551-.202-2.455-.121-.46.041-.872.114-1.225.21-.351.097-.646.219-.91.359-.257.141-.48.304-.669.478-.655.63-.827 1.286-.841 1.992v8.671h-5.516v-11.745h-4.916v7.898c-.027.259.149.688.381.747.073.03.165.064.291.092.125.026.289.056.585.075.659.034 1.697.015 2.561.019v2.989c-.778.041-1.56.076-2.068.092-.508.019-.746.026-.981.03-.231.008-.463.019-.992.008-.533-.019-1.371-.062-2.003-.143-.634-.083-1.065-.202-1.416-.346-.35-.144-.618-.31-.846-.507-.23-.196-.415-.42-.566-.684-.149-.264-.262-.565-.344-.973-.076-.411-.113-.934-.113-1.451v-7.847h-2.588c.183.568.283 1.164.28 1.788v9.958h-5.607v-8.831c0-.353-.03-.709-.092-1-.066-.291-.153-.517-.274-.717-.114-.2-.259-.375-.434-.526-.173-.149-.38-.274-.632-.378-.254-.106-.558-.188-.937-.238-.377-.049-.829-.069-1.293-.049-.468.019-.947.08-1.358.167-.412.088-.754.207-1.053.348-.299.139-.552.304-.765.483-.746.652-.931 1.334-.951 2.07v8.671h-5.604l.015-11.876-9.57 18.541-6.333-.09 3.593-7.407-.373-.703c-.403.347-.857.632-1.469.892-.614.261-1.382.499-2.372.687-.991.185-2.195.319-3.432.362-1.239.047-2.499.002-3.575-.111-1.071-.118-1.953-.304-2.693-.541-.736-.233-1.332-.514-1.832-.833-1.59-1.056-2.246-2.404-2.198-3.623h5.332c.019.403.135.836.424 1.242.128.174.279.325.47.46.188.133.416.253.721.36.623.226 1.691.377 2.665.388.502.007.963-.027 1.355-.087.397-.064.723-.156.999-.267.28-.112.508-.237.688-.368.74-.592.686-1.08.31-1.711-.101-.146-.236-.28-.41-.401-.171-.121-.386-.228-.736-.335-.354-.104-.851-.208-1.408-.298-1.151-.174-2.835-.392-4.479-.731-.856-.173-1.663-.367-2.28-.552-.621-.188-1.052-.371-1.4-.551-.349-.181-.615-.359-.835-.548-1.049-.952-1.082-1.849-.912-2.872.174-.734.472-1.506 1.434-2.241.269-.2.585-.391.985-.573.4-.186.879-.366 1.449-.526.57-.162 1.231-.304 1.958-.413.728-.109 1.521-.183 2.32-.21.797-.027 1.597-.012 2.326.04.732.054 1.392.146 1.967.264.575.117 1.064.261 1.499.43.438.167.829.363 1.189.583.356.222.681.469.985.748 1.06.997 1.624 2.083 1.942 3.192l-5.284.003c-.107-.43-.3-.888-.618-1.318-.625-.776-1.092-.902-1.713-1.089-.572-.153-1.416-.217-2.215-.184-.41.015-.801.059-1.1.109-.304.052-.512.114-.681.182-.272.12-.46.237-.671.565-.228.4-.342.92.144 1.332.11.093.252.184.459.281.204.096.472.195.917.3.442.104 1.07.216 1.554.298 1.058.165 1.412.214 2.089.32.723.104 1.641.229 2.431.354l-.371-.701h5.344l2.291 4.085 4.762-9.381 9.61.001v1.906c.518-.49 1.104-.911 1.732-1.248.632-.339 1.308-.594 2.086-.775.779-.182 1.656-.292 2.595-.308.94-.019 1.941.061 2.763.199.825.137 1.47.337 2.005.585.537.248.96.544 1.321.903v-1.262h3.539v-4.057h5.511v4.057h4.916v-5.123h5.516v7.206c.309-.371.664-.7 1.053-.984.388-.283.804-.516 1.377-.72 1.102-.384 2.835-.725 4.332-.76.718-.011 1.356.064 1.967.19.608.123 1.191.298 1.7.514.507.218.945.475 1.308.76 1.223 1.047 1.677 2.027 1.649 3.155.299-.664.714-1.277 1.251-1.829s1.199-1.039 2.004-1.456c.808-.42 1.765-.767 2.904-1.007s2.461-.372 3.777-.372c1.318 0 2.638.132 3.774.373 1.137.24 2.094.59 2.906 1.006.806.42 1.468.908 2.004 1.46.54.549.952 1.162 1.252 1.829l.003-4.241h5.303v2.073c.594-.573 1.272-1.065 1.972-1.439 1.396-.749 3.168-1.066 4.913-1.056.872.016 1.683.14 2.375.338.689.198 1.26.468 1.754.812.495.343.907.761 1.239 1.241.441-.485.952-.911 1.491-1.252.536-.343 1.104-.599 1.8-.788.694-.191 1.518-.311 2.41-.349.894-.04 1.855.003 2.682.117.828.113 1.514.298 2.098.538.582.239 1.055.535 1.448.868.854.726 1.263 1.59 1.419 2.467.313-.554.712-1.061 1.201-1.52.49-.458 1.074-.871 1.758-1.222.685-.354 1.473-.646 2.394-.86.924-.215 1.98-.352 3.09-.386 1.108-.034 2.27.03 3.308.188 1.04.155 1.96.399 2.746.7.782.304 1.436.664 1.979 1.064.541.396.977.829 1.332 1.337.356.504.637 1.082.82 1.686" fill="#bebfc0"/><path d="m513.7 822.923c.59-.668 1.127-1.382 1.665-2.096h-41.462c.538.714 1.077 1.428 1.662 2.094.592.672 1.233 1.292 1.876 1.915h34.382c.642-.623 1.287-1.243 1.877-1.913m-34.276 3.562c5.805 4.35 13.5 6.044 20.581 4.467 3.54-.772 6.911-2.315 9.828-4.467zm38.092-9.284c.255-.52.479-1.05.704-1.581h-47.164c.429 1.051.931 2.087 1.508 3.109h44.145c.28-.504.555-1.009.807-1.528m1.805-4.973c.137-.556.247-1.119.357-1.68h-50.082c.206 1.117.48 2.231.829 3.333h48.424c.165-.549.333-1.097.472-1.653m.731-5.219c.015-.452.015-.902.015-1.354h-50.859c-.015.901.019 1.804.099 2.705h50.66c.034-.451.069-.9.085-1.351m-.289-4.9c-.056-.361-.125-.718-.193-1.078h-49.864c-.14.72-.254 1.442-.342 2.166h50.546c-.045-.364-.092-.726-.147-1.088m-1.304-4.964c-.132-.354-.275-.702-.421-1.053h-46.804c-.296.703-.559 1.411-.792 2.12h48.39c-.12-.355-.239-.713-.373-1.067m-2.583-5.081c-.224-.339-.458-.669-.694-.999h-41.095c-.483.667-.925 1.346-1.336 2.032h43.768c-.207-.345-.421-.694-.643-1.033m-4.326-4.997c-.364-.323-.742-.631-1.116-.94h-31.607c-.737.594-1.463 1.238-2.173 1.941h35.957c-.351-.338-.7-.677-1.061-1.001m-16.946-6.443c-3.201 0-6.398.939-9.59 1.877h19.209c-3.207-.938-6.419-1.877-9.619-1.877" fill="#bebfc0"/><g fill="#c7c6c5"><path d="m503.596 831.276c-.055-.46-.12-.899-.197-1.309-1.719.614-3.459 1.044-5.215 1.309zm-15.571-.612c-.984-.265-1.948-.62-2.908-.975h-19.844c-.104.528-.186 1.056-.248 1.587h26.002c-1.01-.175-2.018-.349-3.002-.612m-8.273-3.939c-.397-.287-.781-.592-1.165-.897h-12.119c-.237.569-.453 1.141-.639 1.721h15.138c-.408-.268-.819-.538-1.215-.824m-4.273-3.902c-.258-.295-.504-.598-.752-.9l-6.014-.002c-.424.582-.812 1.17-1.166 1.767h8.722c-.266-.285-.53-.572-.79-.865m-2.747-3.803c-.153-.257-.299-.519-.439-.781-.593.473-1.173.982-1.737 1.544h2.643c-.158-.252-.316-.506-.467-.763m26.017 27.468c.455-.503.867-1.043 1.28-1.581h-31.442c.773 1.044 1.66 2.056 2.714 3.024h26.008c.492-.47.988-.939 1.44-1.443m-25.809 2.773c.144.078.288.156.487.27.196.113.446.26 1.534.811 1.087.55 3.006 1.499 4.826 2.041 1.445.433 2.837.607 4.245.605.36 0 .724-.011 1.088-.034 1.792-.108 3.66-.459 5.456-1.08 1.796-.617 3.52-1.505 5.087-2.612zm28.768-7.133c.197-.399.372-.809.552-1.216h-35.899c.339.808.732 1.607 1.186 2.393h33.526c.218-.389.436-.777.635-1.177m1.417-3.847c.108-.421.197-.848.282-1.274h-38.195c.16.848.374 1.689.643 2.528h36.912c.128-.416.255-.832.358-1.254m.578-3.892c.015-.325.015-.649.018-.973h-38.82c-.001.648.027 1.296.087 1.945h38.648c.026-.324.052-.648.068-.972"/><path d="m469.215 806.861c-.003-.177-.007-.354-.007-.533h-14.09c1.006.74 2.116 1.34 3.283 1.775 2.308.858 4.869 1.066 7.329.552 1.219-.253 2.408-.679 3.511-1.262-.007-.176-.019-.354-.023-.532m.04-2.426c.027-.372.061-.744.096-1.115h-17.181c.563.772 1.211 1.52 1.993 2.232h15.046c.015-.372.026-.744.046-1.117m.367-2.964c.051-.283.111-.564.167-.844h-19.099c.238.572.513 1.137.835 1.693h17.954c.048-.283.089-.568.143-.849m.624-2.63c.086-.288.18-.576.275-.864h-20.597c.108.584.253 1.164.433 1.739h19.648c.08-.292.154-.584.241-.875m.975-2.716c.103-.236.209-.472.312-.706h-21.823c-.004.474.015.95.058 1.424h21.162c.095-.24.191-.48.291-.718m1.284-2.601c.108-.194.219-.384.332-.575h-22.868c-.075.384-.134.77-.179 1.155h22.395c.106-.195.208-.388.317-.58zm1.709-2.629c.148-.2.301-.396.454-.592h-23.871c-.169.394-.319.796-.452 1.197h23.432c.144-.203.288-.405.437-.605m-.06-2.676c-.139-.208-.286-.41-.432-.611h-21.373c-.299.408-.572.823-.822 1.245h23.021c-.129-.214-.258-.428-.394-.634m-2.192-2.543c-.204-.184-.417-.359-.629-.533h-16.596c-.417.337-.824.702-1.224 1.105h19.047c-.195-.194-.394-.388-.598-.572m-8.94-3.431c-1.687 0-3.373.498-5.056.995h10.126c-1.691-.497-3.382-.995-5.07-.995"/></g></g></svg>