
<svg xmlns="http://www.w3.org/2000/svg" width="256" height="256">
    
    <rect x="12" y="12" width="232" height="232" rx="32" ry="32" fill="#ffffff" stroke="#000201" stroke-width="16"/>
    <path d="M48 8v40h24v-40h-24z" fill="#000000"/>
    <path d="M184 8v40h24v-40h-24z" fill="#000000"/>
    <path d="M32 80v40h40v-40h-40H82v40h40v-40h-40H132v40h40v-40h-40H182v40h40v-40h-40" fill="#000000"/>
    <path d="M32 128v40h40v-40h-40H82v40h40v-40h-40H132v40h40v-40h-40H182v40h40v-40h-40" fill="#000000"/>
    <path d="M32 176v40h40v-40h-40H82v40h40v-40h-40H132v40h40v-40h-40H182v40h40v-40h-40" fill="#000000"/>
    <path d="M0 0h32v32H0z" fill="none"/>

    <!--<text x="5.5" y="13.7" font-size="3.5"  text-anchor="middle" fill="#000000">10</text>
    <text x="12.5" y="13.7" font-size="3.5" text-anchor="middle" fill="#000000">11</text>
    <text x="19.5" y="13.7" font-size="3.5" text-anchor="middle" fill="#000000">12</text>
    <text x="26.5" y="13.7" font-size="3.5" text-anchor="middle" fill="#000000">13</text>
    
    
    <text x="5.5" y="20.7" font-size="3.5" text-anchor="middle" fill="#000000">14</text>
    <text x="12.5" y="20.7" font-size="3.5" text-anchor="middle" fill="#000000">15</text>
    <text x="19.5" y="20.7" font-size="3.5" text-anchor="middle" fill="#000000">16</text>
    <text x="26.5" y="20.7" font-size="3.5" text-anchor="middle" fill="#000000">17</text>
    
    
    <text x="5.5" y="27.7" font-size="3.5" text-anchor="middle" fill="#000000">18</text>
    <text x="12.5" y="27.7" font-size="3.5" text-anchor="middle" fill="#000000">19</text>
    <text x="19.5" y="27.7" font-size="3.5" text-anchor="middle" fill="#000000">20</text>
    <text x="26.5" y="27.7" font-size="3.5" text-anchor="middle" fill="#000000">21</text>-->
</svg>
